<svg width="107" height="32" viewBox="0 0 107 32" fill="none" xmlns="http://www.w3.org/2000/svg">
<path d="M0 14.3773V31.3473H6.95297V24.0408C9.68702 23.7579 14.613 28.7939 16.7343 31.3473H26.7513L19.9161 24.0408L24.2765 20.1518L26.7513 22.2731V12.4918L16.7343 12.6096C17.2057 13.1988 18.3134 14.5423 18.9734 15.2022C14.2595 21.7074 8.99565 17.3628 6.95297 14.3773H0Z" fill="#569C6A"/>
<path d="M3.41755 5.03253C13.4345 -5.80938 26.3977 3.02915 26.3977 11.2784L20.034 11.2784C14.943 4.01906 9.66344 7.70374 7.66004 10.4535L10.2527 13.3997H0.471375V3.38269L2.94616 5.50394L3.41755 5.03253Z" fill="#569C6A"/>
<path d="M33.1081 24.1736V22.3478L33.8519 22.2801C34.2877 22.235 34.5057 22.0247 34.5057 21.649V11.167L33.2208 11.0994V9.1833H39.3747C41.1179 9.1833 42.4554 9.5064 43.3872 10.1526C44.3189 10.7988 44.7847 11.8583 44.7847 13.331C44.7847 14.3529 44.5142 15.1945 43.9732 15.8557C43.4473 16.5169 42.8161 16.9978 42.0797 17.2984C42.6207 17.4937 43.049 17.9521 43.3646 18.6734L44.9876 22.2125L46.2725 22.2576V24.1736H40.7047V22.3478L41.3584 22.2801C41.704 22.235 41.8768 22.0998 41.8768 21.8744C41.8768 21.7842 41.8468 21.679 41.7867 21.5588L40.7272 19.3046C40.5619 18.9289 40.3741 18.6659 40.1637 18.5156C39.9683 18.3503 39.6828 18.2677 39.3071 18.2677H37.2558V22.19L38.721 22.2576V24.1736H33.1081ZM37.2558 16.1262H39.2169C41.0653 16.1262 41.9896 15.2997 41.9896 13.6466C41.9896 12.6998 41.7416 12.0837 41.2457 11.7982C40.7648 11.5126 39.9833 11.3699 38.9013 11.3699H37.2558V16.1262ZM52.8993 12.497C54.0264 12.497 54.9205 12.775 55.5818 13.331C56.243 13.872 56.5736 14.6384 56.5736 15.6303C56.5736 16.2915 56.4308 16.8776 56.1453 17.3885C55.8598 17.8845 55.5066 18.2752 55.0858 18.5607C54.6651 18.8463 54.1541 19.0792 53.553 19.2595C52.5461 19.5601 51.4115 19.7104 50.1492 19.7104C50.1943 20.5068 50.4422 21.153 50.8931 21.649C51.3439 22.1298 52.0352 22.3703 52.9669 22.3703C53.8986 22.3703 54.8304 22.0397 55.7621 21.3785L56.6187 23.2043C56.3181 23.4748 55.8072 23.7529 55.0858 24.0384C54.3795 24.3239 53.568 24.4667 52.6513 24.4667C50.8179 24.4667 49.4729 23.9633 48.6163 22.9564C47.7597 21.9345 47.3314 20.5369 47.3314 18.7636C47.3314 16.9903 47.8199 15.5025 48.7967 14.3003C49.7735 13.0981 51.141 12.497 52.8993 12.497ZM51.8624 17.659C52.4184 17.5539 52.9293 17.3359 53.3952 17.0053C53.8611 16.6597 54.094 16.2539 54.094 15.7881C54.094 14.8714 53.6432 14.413 52.7415 14.413C51.8999 14.413 51.2537 14.7511 50.8029 15.4274C50.3521 16.0886 50.1041 16.8851 50.059 17.8168C50.7202 17.8018 51.3214 17.7492 51.8624 17.659ZM59.1518 23.4974V10.5584C59.1518 10.2127 58.964 10.0324 58.5883 10.0174L57.7993 9.97227V8.10129H61.7667V13.4437C62.443 12.8125 63.3521 12.497 64.4943 12.497C65.9069 12.497 67.0265 12.9779 67.853 13.9396C68.6795 14.8864 69.0928 16.2239 69.0928 17.9521C69.0928 22.2952 67.2744 24.4667 63.6377 24.4667C62.8562 24.4667 62.0297 24.369 61.1581 24.1736C60.3015 23.9933 59.6327 23.7679 59.1518 23.4974ZM61.7667 16.1938V22.0322C62.3378 22.3327 62.999 22.483 63.7504 22.483C65.4636 22.483 66.3202 21.0929 66.3202 18.3128C66.3202 15.773 65.4786 14.5032 63.7955 14.5032C63.2545 14.5032 62.7811 14.661 62.3753 14.9766C61.9696 15.2921 61.7667 15.6979 61.7667 16.1938ZM80.807 13.2859V21.6715C80.807 21.9119 80.8446 22.0773 80.9197 22.1674C81.0099 22.2576 81.1602 22.3102 81.3705 22.3252L82.0919 22.3703V24.1736H78.5077V22.8662L78.4401 22.8437C77.6887 23.9257 76.6593 24.4667 75.3519 24.4667C73.819 24.4667 72.6844 23.9783 71.948 23.0015C71.2117 22.0247 70.8435 20.6872 70.8435 18.989C70.8435 16.9452 71.3394 15.3523 72.3313 14.2101C73.3231 13.068 74.8109 12.497 76.7945 12.497C78.0719 12.497 79.4094 12.7599 80.807 13.2859ZM78.1921 20.5895V14.7511C77.7714 14.5558 77.1928 14.4581 76.4564 14.4581C75.4495 14.4581 74.7207 14.8639 74.2699 15.6754C73.819 16.4869 73.5936 17.5614 73.5936 18.8988C73.5936 21.3334 74.3751 22.5506 75.938 22.5506C76.5992 22.5506 77.1402 22.3553 77.561 21.9645C77.9818 21.5588 78.1921 21.1004 78.1921 20.5895ZM93.5067 24.1511C93.3715 25.8192 92.8906 27.044 92.064 27.8254C91.2375 28.6069 89.9451 28.9976 88.1868 28.9976C86.4286 28.9976 85.0535 28.7496 84.0617 28.2537V25.1204L86.2031 24.9401V26.0221C86.2031 26.4278 86.391 26.6983 86.7667 26.8336C87.1424 26.9839 87.6608 27.059 88.3221 27.059C89.2839 27.059 89.9601 26.766 90.3508 26.1799C90.7416 25.6088 90.9369 24.7973 90.9369 23.7453V22.5055C90.2156 23.3471 89.2162 23.7679 87.9389 23.7679C87.1574 23.7679 86.4661 23.6176 85.865 23.3171C85.2789 23.0165 84.8206 22.6107 84.49 22.0998C83.8438 21.0779 83.5207 19.8757 83.5207 18.4931C83.5207 16.5244 84.0541 15.0367 85.1211 14.0298C86.1881 13.0079 87.6082 12.497 89.3815 12.497C90.8543 12.497 92.2444 12.775 93.5518 13.331V21.694C93.5518 22.9714 93.5368 23.7904 93.5067 24.1511ZM90.9369 19.5751V14.7286C90.411 14.5483 89.8098 14.4581 89.1336 14.4581C88.2169 14.4581 87.5106 14.7962 87.0146 15.4725C86.5338 16.1487 86.2933 17.0654 86.2933 18.2226C86.2933 20.597 87.0748 21.7842 88.6377 21.7842C89.2839 21.7842 89.8249 21.5888 90.2607 21.1981C90.7115 20.7924 90.9369 20.2514 90.9369 19.5751ZM101.395 12.497C102.522 12.497 103.416 12.775 104.078 13.331C104.739 13.872 105.069 14.6384 105.069 15.6303C105.069 16.2915 104.927 16.8776 104.641 17.3885C104.356 17.8845 104.002 18.2752 103.582 18.5607C103.161 18.8463 102.65 19.0792 102.049 19.2595C101.042 19.5601 99.9074 19.7104 98.645 19.7104C98.6901 20.5068 98.9381 21.153 99.3889 21.649C99.8397 22.1298 100.531 22.3703 101.463 22.3703C102.394 22.3703 103.326 22.0397 104.258 21.3785L105.115 23.2043C104.814 23.4748 104.303 23.7529 103.582 24.0384C102.875 24.3239 102.064 24.4667 101.147 24.4667C99.3138 24.4667 97.9688 23.9633 97.1122 22.9564C96.2556 21.9345 95.8273 20.5369 95.8273 18.7636C95.8273 16.9903 96.3157 15.5025 97.2925 14.3003C98.2693 13.0981 99.6369 12.497 101.395 12.497ZM100.358 17.659C100.914 17.5539 101.425 17.3359 101.891 17.0053C102.357 16.6597 102.59 16.2539 102.59 15.7881C102.59 14.8714 102.139 14.413 101.237 14.413C100.396 14.413 99.7496 14.7511 99.2987 15.4274C98.8479 16.0886 98.5999 16.8851 98.5548 17.8168C99.2161 17.8018 99.8172 17.7492 100.358 17.659Z" fill="#569C6A"/>
</svg>
