<svg width="85" height="99" viewBox="0 0 85 99" fill="none" xmlns="http://www.w3.org/2000/svg">
<g opacity="0.6">
<path d="M0.640991 44.9938V98.1013H22.4003V75.2356C30.9565 74.3505 46.3724 90.1106 53.0109 98.1013H84.359L62.9685 75.2356L76.6142 63.0651L84.359 69.7036V39.093L53.0109 39.4618C54.4861 41.3058 57.9528 45.5102 60.0181 47.5755C45.266 67.9333 28.7929 54.3368 22.4003 44.9938H0.640991Z" fill="#569C6A"/>
<path d="M11.3364 15.7493C42.6846 -18.1805 83.2528 9.47973 83.2528 35.2958L63.3375 35.2959C47.4052 12.5777 30.8829 24.1089 24.6133 32.7142L32.7269 41.9343H2.11633V10.5861L9.86117 17.2246L11.3364 15.7493Z" fill="#569C6A"/>
</g>
</svg>
